HIERARCHY
ROOT Hips
{
	OFFSET 53.215900 7.509991 58.287899
	CHANNELS 6 Xposition Yposition Zposition Xrotation Yrotation Zrotation
	JOINT spine
	{
		OFFSET 0.000000 -0.393701 6.846371
		CHANNELS 3 Xrotation Yrotation Zrotation
		JOINT spine1
		{
			OFFSET 0.000000 -0.000001 9.496208
			CHANNELS 3 Xrotation Yrotation Zrotation
			JOINT spine2
			{
				OFFSET 0.000000 -0.000002 9.099091
				CHANNELS 3 Xrotation Yrotation Zrotation
				JOINT Neck
				{
					OFFSET 0.000000 -1.113784 23.361198
					CHANNELS 3 Xrotation Yrotation Zrotation
					JOINT Head
					{
						OFFSET 0.000000 -0.000001 7.058022
						CHANNELS 3 Xrotation Yrotation Zrotation
						End Site
						{
							OFFSET 0.000000 5.634188 17.084396
						}
					}
				}
				JOINT RightShoulder
				{
					OFFSET -3.831360 0.533490 9.826309
					CHANNELS 3 Xrotation Yrotation Zrotation
					JOINT RightArm
					{
						OFFSET 0.000000 -0.000002 12.888100
						CHANNELS 3 Xrotation Yrotation Zrotation
						JOINT RightArmRoll
						{
							OFFSET 0.000000 -0.000001 6.506172
							CHANNELS 3 Xrotation Yrotation Zrotation
							JOINT RightForeArm
							{
								OFFSET 0.000000 -0.000003 18.950104
								CHANNELS 3 Xrotation Yrotation Zrotation
								JOINT RightForeArmRoll
								{
									OFFSET 0.000000 -0.000001 7.300934
									CHANNELS 3 Xrotation Yrotation Zrotation
									JOINT RightHand
									{
										OFFSET 0.000000 -0.000002 14.651398
										CHANNELS 3 Xrotation Yrotation Zrotation
										End Site
										{
											OFFSET 0.000000 0.000000 0.100006
										}
									}
								}
							}
						}
					}
				}
				JOINT LeftShoulder
				{
					OFFSET 3.831360 0.533490 9.826309
					CHANNELS 3 Xrotation Yrotation Zrotation
					JOINT LeftArm
					{
						OFFSET 0.000000 -0.000002 12.888100
						CHANNELS 3 Xrotation Yrotation Zrotation
						JOINT LeftArmRoll
						{
							OFFSET 0.000000 -0.000001 6.506172
							CHANNELS 3 Xrotation Yrotation Zrotation
							JOINT LeftForeArm
							{
								OFFSET 0.000000 -0.000003 18.950104
								CHANNELS 3 Xrotation Yrotation Zrotation
								JOINT LeftForeArmRoll
								{
									OFFSET 0.000000 -0.000001 7.300919
									CHANNELS 3 Xrotation Yrotation Zrotation
									JOINT LeftHand
									{
										OFFSET 0.000000 -0.000002 14.651398
										CHANNELS 3 Xrotation Yrotation Zrotation
										End Site
										{
											OFFSET 0.000000 0.000000 0.100006
										}
									}
								}
							}
						}
					}
				}
			}
		}
	}
	JOINT RightUpLeg
	{
		OFFSET -6.068371 0.933477 -1.112782
		CHANNELS 3 Xrotation Yrotation Zrotation
		JOINT RightUpLegRoll
		{
			OFFSET 0.000000 -0.000003 17.179604
			CHANNELS 3 Xrotation Yrotation Zrotation
			JOINT RightLeg
			{
				OFFSET 0.000000 0.000004 -21.274300
				CHANNELS 3 Xrotation Yrotation Zrotation
				JOINT RightLegRoll
				{
					OFFSET 0.000000 -0.000004 21.343903
					CHANNELS 3 Xrotation Yrotation Zrotation
					JOINT RightFoot
					{
						OFFSET 0.000000 -0.000003 17.765198
						CHANNELS 3 Xrotation Yrotation Zrotation
						JOINT RightToeBase
						{
							OFFSET 0.000000 -0.000002 14.850800
							CHANNELS 3 Xrotation Yrotation Zrotation
							End Site
							{
								OFFSET 0.006294 0.829002 7.192139
							}
						}
					}
				}
			}
		}
	}
	JOINT LeftUpLeg
	{
		OFFSET 6.068371 0.933477 -1.112782
		CHANNELS 3 Xrotation Yrotation Zrotation
		JOINT LeftUpLegRoll
		{
			OFFSET 0.000000 -0.000003 17.179703
			CHANNELS 3 Xrotation Yrotation Zrotation
			JOINT LeftLeg
			{
				OFFSET 0.000000 -0.000003 21.274200
				CHANNELS 3 Xrotation Yrotation Zrotation
				JOINT LeftLegRoll
				{
					OFFSET 0.000000 -0.000004 21.541199
					CHANNELS 3 Xrotation Yrotation Zrotation
					JOINT LeftFoot
					{
						OFFSET 0.000000 -0.000003 17.567894
						CHANNELS 3 Xrotation Yrotation Zrotation
						JOINT LeftToeBase
						{
							OFFSET 0.000000 -0.000003 14.850800
							CHANNELS 3 Xrotation Yrotation Zrotation
							End Site
							{
								OFFSET -0.028210 0.829004 7.192123
							}
						}
					}
				}
			}
		}
	}
}
MOTION
Frames: 6
Frame Time: 0.041667
52.284794 0.360284 65.638603 37.254420 2.992956 -0.083211 2.537190 -0.459023 0.817226 9.083950 -0.873152 1.658170 10.728812 -0.853252 1.668562 65.870857 14.797726 -9.312330 -11.438378 -13.736400 -3.481924 -4.997188 -26.334356 -2.076719 -34.165282 -130.955927 -98.062112 0.000004 0.000001 -0.000004 66.396686 -8.899197 7.018510 -0.000004 0.000012 -3.000001 -5.000212 -7.998998 0.000167 -6.621506 36.348959 5.648873 -46.293021 137.101554 95.955470 0.000003 0.000033 0.000003 55.553535 20.180415 -13.672861 -0.000002 0.000029 3.008397 -5.000224 7.999086 -0.000137 -105.540800 183.832096 -0.442604 -179.999991 0.000005 -0.360998 119.466005 -4.549708 -4.877026 0.000003 -0.000001 1.197150 67.991658 7.159310 1.520815 25.456945 -7.355615 0.000011 -107.474051 164.419538 3.717861 -0.000005 -0.000003 -0.179349 -69.500528 2.129001 4.554312 -0.000005 -0.000006 -1.427859 68.880484 -7.152636 -1.463855 25.456957 7.355614 -0.000001 
52.270096 0.429070 65.547997 37.122006 2.995052 -0.059287 2.539684 -0.462587 0.814956 9.088971 -0.880378 1.653834 10.733829 -0.860525 1.664307 65.837211 14.763217 -9.285670 -11.427634 -13.744169 -3.473505 -5.030002 -26.341390 -2.125359 -34.161553 -130.970339 -98.041478 0.000002 -0.000001 -0.000005 66.447010 -8.871246 6.997255 -0.000002 0.000011 -3.000001 -5.000212 -7.999003 0.000168 -6.606867 36.316935 5.625498 -46.286409 137.111649 95.966883 0.000003 0.000032 0.000003 55.549047 20.108951 -13.636780 0.000000 0.000026 3.008401 -5.000220 7.999081 -0.000137 -105.542521 183.837820 -0.431749 -179.999991 0.000005 -0.363006 119.371735 -4.522004 -4.873298 0.000003 -0.000001 1.201209 67.977963 7.160377 1.519512 25.456945 -7.355614 0.000010 -107.495573 164.436463 3.711918 -0.000004 -0.000003 -0.181051 -69.599505 2.092662 4.540822 -0.000005 -0.000007 -1.433229 68.870935 -7.153542 -1.462343 25.456959 7.355613 -0.000000 
52.257591 0.500760 65.460503 36.986130 2.995138 -0.032491 2.542522 -0.465858 0.812108 9.094690 -0.887023 1.648308 10.739545 -0.867232 1.658849 65.807561 14.725408 -9.258883 -11.421799 -13.747096 -3.466014 -5.062186 -26.349342 -2.173213 -34.158650 -130.985024 -98.020359 0.000004 0.000000 -0.000003 66.496755 -8.843762 6.976136 -0.000004 0.000011 -3.000001 -5.000210 -7.999003 0.000168 -6.591052 36.285670 5.600592 -46.281922 137.121799 95.979273 0.000007 0.000032 0.000004 55.542989 20.039012 -13.601103 -0.000002 0.000024 3.008399 -5.000223 7.999083 -0.000132 -105.541859 183.847423 -0.422641 -179.999991 0.000005 -0.365000 119.277123 -4.493325 -4.867786 0.000002 -0.000001 1.205360 67.964378 7.161452 1.518104 25.456948 -7.355614 0.000011 -107.512560 164.456038 3.702822 -0.000005 -0.000005 -0.182966 -69.698235 2.056538 4.527510 -0.000006 -0.000007 -1.438649 68.861489 -7.154487 -1.460631 25.456957 7.355614 -0.000001 
52.244690 0.574875 65.372299 36.846630 2.992725 -0.002384 2.545731 -0.468774 0.808584 9.101106 -0.892957 1.641370 10.745963 -0.873246 1.651980 65.782542 14.684183 -9.231790 -11.421578 -13.744651 -3.459514 -5.093145 -26.358421 -2.219460 -34.158213 -130.997414 -98.000620 0.000002 -0.000001 -0.000003 66.545625 -8.816833 6.955494 -0.000002 0.000009 -2.999999 -5.000214 -7.998997 0.000167 -6.573987 36.255467 5.574101 -46.280105 137.131265 95.993541 0.000002 0.000033 0.000003 55.535602 19.970838 -13.566314 -0.000002 0.000028 3.008398 -5.000223 7.999086 -0.000137 -105.538936 183.861603 -0.414967 -179.999991 0.000005 -0.366995 119.182088 -4.464668 -4.863241 0.000002 -0.000001 1.209610 67.950929 7.162643 1.516410 25.456947 -7.355614 0.000011 -107.524403 164.478441 3.689960 -0.000003 -0.000004 -0.185129 -69.796528 2.020832 4.514548 -0.000005 -0.000006 -1.444120 68.852384 -7.155447 -1.458799 25.456957 7.355614 -0.000002 
52.237892 0.647876 65.278908 36.703111 2.987329 0.031457 2.549279 -0.471268 0.804286 9.108207 -0.898051 1.632821 10.753082 -0.878439 1.643479 65.763083 14.639506 -9.204719 -11.427661 -13.736310 -3.454083 -5.122282 -26.369154 -2.263305 -34.158592 -131.009025 -97.979856 0.000002 0.000001 -0.000003 66.593347 -8.790300 6.934854 -0.000002 0.000010 -3.000000 -5.000208 -7.999004 0.000169 -6.555600 36.226845 5.545984 -46.281065 137.140090 96.009456 0.000004 0.000032 0.000004 55.526706 19.904787 -13.532470 -0.000002 0.000027 3.008397 -5.000224 7.999083 -0.000135 -105.533697 183.880959 -0.409642 -179.999991 0.000005 -0.369003 119.086466 -4.435023 -4.857913 0.000002 -0.000001 1.213990 67.937419 7.163934 1.514641 25.456947 -7.355615 0.000011 -107.530489 164.504246 3.671263 -0.000001 -0.000004 -0.187578 -69.893893 1.985783 4.502109 -0.000005 -0.000006 -1.449600 68.843512 -7.156490 -1.456770 25.456955 7.355614 -0.000001 
52.236595 0.720973 65.196404 36.555565 2.978443 0.069460 2.553180 -0.473275 0.799115 9.116009 -0.902175 1.622447 10.760902 -0.882683 1.633149 65.749942 14.591227 -9.177386 -11.440538 -13.721666 -3.449742 -5.148998 -26.381867 -2.303938 -34.161007 -131.018191 -97.959229 0.000001 -0.000002 -0.000004 66.639622 -8.764248 6.914583 -0.000001 0.000009 -3.000002 -5.000212 -7.998994 0.000167 -6.535858 36.200177 5.516224 -46.285050 137.148409 96.027180 0.000004 0.000034 0.000002 55.516331 19.840888 -13.499653 -0.000003 0.000029 3.008403 -5.000223 7.999083 -0.000138 -105.526272 183.906245 -0.405434 -179.999991 0.000005 -0.371995 118.990310 -4.404893 -4.852679 0.000002 -0.000001 1.218500 67.924128 7.165315 1.512375 25.456945 -7.355615 0.000011 -107.530168 164.533779 3.648289 -0.000005 -0.000002 -0.190349 -69.989973 1.951607 4.490341 -0.000005 -0.000006 -1.455101 68.834981 -7.157622 -1.454433 25.456957 7.355613 0.000000 
